<svg width="32" height="32" viewBox="0 0 32 32" fill="none" xmlns="http://www.w3.org/2000/svg">
<path d="M30 26H28V14.4438C28 14.167 27.9426 13.8932 27.8314 13.6397C27.7201 13.3862 27.5575 13.1586 27.3538 12.9713L17.3538 3.53626C17.3489 3.532 17.3443 3.5274 17.34 3.52251C16.9718 3.18768 16.492 3.00214 15.9944 3.00214C15.4967 3.00214 15.0169 3.18768 14.6488 3.52251L14.635 3.53626L4.64625 12.9713C4.4425 13.1586 4.27985 13.3862 4.16861 13.6397C4.05737 13.8932 3.99996 14.167 4 14.4438V26H2C1.73478 26 1.48043 26.1054 1.29289 26.2929C1.10536 26.4804 1 26.7348 1 27C1 27.2652 1.10536 27.5196 1.29289 27.7071C1.48043 27.8947 1.73478 28 2 28H30C30.2652 28 30.5196 27.8947 30.7071 27.7071C30.8946 27.5196 31 27.2652 31 27C31 26.7348 30.8946 26.4804 30.7071 26.2929C30.5196 26.1054 30.2652 26 30 26ZM19 26H13V20C13 19.7348 13.1054 19.4804 13.2929 19.2929C13.4804 19.1054 13.7348 19 14 19H18C18.2652 19 18.5196 19.1054 18.7071 19.2929C18.8946 19.4804 19 19.7348 19 20V26Z" fill="#0055D3"/>
</svg>
