<svg width="33" height="32" viewBox="0 0 33 32" fill="none" xmlns="http://www.w3.org/2000/svg">
<path d="M28.845 8.62501C28.7843 8.47508 28.6882 8.3421 28.5649 8.23748C28.4415 8.13286 28.2947 8.05971 28.1369 8.02431C27.979 7.98892 27.815 7.99233 27.6588 8.03425C27.5026 8.07617 27.3589 8.15535 27.24 8.26501L22.2025 12.9138L20.0487 12.4513L19.5862 10.2975L24.235 5.26001C24.3447 5.14112 24.4238 4.99742 24.4658 4.84121C24.5077 4.685 24.5111 4.52096 24.4757 4.36315C24.4403 4.20533 24.3671 4.05846 24.2625 3.93513C24.1579 3.81179 24.0249 3.71567 23.875 3.65501C22.5087 3.1023 21.0275 2.89361 19.5616 3.04728C18.0958 3.20095 16.6901 3.71227 15.4681 4.53632C14.2461 5.36037 13.2452 6.47193 12.5533 7.77332C11.8614 9.07472 11.4997 10.5261 11.5 12C11.4984 13.2446 11.7537 14.4761 12.25 15.6175L4.72375 22.125C4.705 22.14 4.6875 22.1575 4.67 22.1738C3.91977 22.924 3.49829 23.9415 3.49829 25.0025C3.49829 25.5279 3.60177 26.0481 3.80281 26.5334C4.00385 27.0188 4.29852 27.4598 4.67 27.8313C5.04147 28.2027 5.48248 28.4974 5.96784 28.6985C6.4532 28.8995 6.9734 29.003 7.49875 29.003C8.55973 29.003 9.57727 28.5815 10.3275 27.8313C10.3437 27.815 10.3612 27.7963 10.3762 27.7788L16.8825 20.25C18.253 20.8516 19.752 21.1019 21.2436 20.9783C22.7353 20.8546 24.1725 20.3608 25.4253 19.5417C26.678 18.7226 27.7067 17.604 28.4182 16.2871C29.1297 14.9703 29.5015 13.4968 29.5 12C29.5019 10.8432 29.2795 9.69707 28.845 8.62501ZM20.5 19C19.3163 18.9984 18.1523 18.6974 17.1162 18.125C16.9155 18.0141 16.6828 17.9756 16.457 18.0159C16.2313 18.0561 16.0262 18.1728 15.8762 18.3463L8.88875 26.4388C8.51062 26.798 8.00712 26.9953 7.4856 26.9886C6.96408 26.982 6.46579 26.7718 6.09699 26.403C5.72819 26.0342 5.51805 25.5359 5.51137 25.0144C5.50469 24.4929 5.70201 23.9894 6.06125 23.6113L14.1475 16.625C14.3213 16.475 14.4381 16.2697 14.4784 16.0436C14.5187 15.8176 14.48 15.5846 14.3687 15.3838C13.7313 14.2308 13.4321 12.9214 13.5057 11.606C13.5792 10.2906 14.0224 9.02266 14.7844 7.94795C15.5464 6.87324 16.5963 6.03538 17.8132 5.53069C19.0301 5.02601 20.3648 4.875 21.6637 5.09501L17.7637 9.32126C17.6552 9.43898 17.5766 9.58103 17.5344 9.73546C17.4922 9.8899 17.4877 10.0522 17.5212 10.2088L18.2287 13.5C18.2692 13.6882 18.3632 13.8608 18.4993 13.997C18.6355 14.1331 18.808 14.227 18.9962 14.2675L22.29 14.975C22.4465 15.0086 22.6089 15.0041 22.7633 14.9619C22.9177 14.9197 23.0598 14.841 23.1775 14.7325L27.4037 10.8325C27.5722 11.8363 27.52 12.8647 27.2508 13.8462C26.9816 14.8278 26.5017 15.7389 25.8447 16.5162C25.1876 17.2935 24.3692 17.9184 23.4462 18.3473C22.5232 18.7763 21.5178 18.999 20.5 19Z" fill="black"/>
</svg>
